<svg width="1080" height="1080" viewBox="0 0 1080 1080" fill="none" xmlns="http://www.w3.org/2000/svg">
<path d="M197.586 972.666C194.359 970.447 193.351 966.008 195.569 962.578C197.787 959.35 202.224 958.341 205.652 960.561C207.668 961.973 209.887 963.385 212.307 964.797C228.843 974.885 244.37 979.929 257.075 979.929C268.569 979.929 278.047 975.49 283.895 966.815C284.298 966.21 284.702 965.806 284.702 965.403C286.315 962.578 287.727 959.753 288.533 956.929C290.146 951.078 289.945 945.025 287.525 939.578C285.105 933.727 280.064 928.28 272.401 923.639C267.359 920.613 260.906 917.788 253.243 915.569C233.682 910.121 219.365 902.253 211.5 891.963C203.03 880.463 202.425 866.744 211.5 849.998C217.55 838.902 229.851 832.042 245.58 830.831C259.091 829.823 275.425 833.051 291.961 841.524C295.591 843.34 297.003 847.779 295.188 851.209C293.373 854.84 288.936 856.253 285.508 854.437C271.392 847.174 257.881 844.551 246.79 845.358C236.102 846.165 227.834 850.402 224.406 857.06C218.356 868.156 218.356 876.832 223.398 883.49C229.044 891.156 240.942 897.209 257.276 901.849C266.149 904.271 273.61 907.7 279.862 911.534C290.146 917.788 297.003 925.657 300.633 934.13C304.464 942.806 304.867 952.288 302.246 961.166C301.036 965.201 299.221 969.438 296.801 973.271C296.196 974.078 295.793 974.885 295.591 975.289C286.92 988.201 273.207 994.657 256.671 994.657C241.345 994.657 223.398 989.008 204.442 977.508C202.627 975.894 200.207 974.482 197.586 972.666Z" fill="#EA501F"/>
<path d="M326.445 837.691C326.445 833.857 329.671 830.831 333.704 830.831C337.738 830.831 340.964 833.857 340.964 837.691V987.596C340.964 991.429 337.738 994.455 333.704 994.455C329.671 994.455 326.445 991.429 326.445 987.596V837.691Z" fill="#EA501F"/>
<path d="M341.367 931.104C338.746 934.13 334.309 934.736 331.083 932.113C328.058 929.49 327.453 925.051 330.075 921.823C341.166 908.306 353.669 900.034 365.97 896.402C374.843 893.779 383.514 893.577 390.975 895.595C398.84 897.814 405.696 902.253 410.536 909.113C415.174 915.569 417.796 923.841 417.796 933.727V987.394C417.796 991.429 414.569 994.657 410.536 994.657C406.503 994.657 403.276 991.429 403.276 987.394V933.727C403.276 926.867 401.663 921.42 398.84 917.385C396.017 913.551 392.185 910.928 387.345 909.516C382.304 908.104 376.456 908.306 370.204 910.121C360.525 913.148 350.442 920.007 341.367 931.104Z" fill="#EA501F"/>
<path d="M488.981 894.183C502.895 894.183 515.398 899.832 524.472 908.911C533.547 917.99 539.193 930.499 539.193 944.42C539.193 958.341 533.547 970.85 524.472 979.929C515.398 989.008 502.895 994.657 488.981 994.657C475.066 994.657 462.564 989.008 453.489 979.929C444.414 970.85 438.768 958.341 438.768 944.42C438.768 930.499 444.414 917.99 453.489 908.911C462.564 899.832 475.268 894.183 488.981 894.183ZM514.389 918.999C507.936 912.542 498.862 908.507 488.981 908.507C479.099 908.507 470.227 912.542 463.572 918.999C457.119 925.455 453.086 934.534 453.086 944.42C453.086 954.306 457.119 963.385 463.572 969.841C470.025 976.297 479.099 980.332 488.981 980.332C498.862 980.332 507.735 976.297 514.389 969.841C520.843 963.385 524.876 954.306 524.876 944.42C524.876 934.534 520.843 925.455 514.389 918.999Z" fill="#EA501F"/>
<path d="M559.762 901.446C559.762 897.411 562.989 894.183 567.022 894.183C571.055 894.183 574.282 897.411 574.282 901.446V910.525C574.887 909.92 575.29 909.314 575.895 908.911C584.97 899.832 597.472 894.183 611.387 894.183C625.301 894.183 637.804 899.832 646.878 908.911C655.953 917.99 661.599 930.499 661.599 944.42C661.599 958.341 655.953 970.85 646.878 979.929C637.804 989.008 625.301 994.657 611.387 994.657C597.472 994.657 584.97 989.008 575.895 979.929C575.29 979.324 574.887 978.718 574.282 978.315V1044.29C574.282 1048.32 571.055 1051.55 567.022 1051.55C562.989 1051.55 559.762 1048.32 559.762 1044.29V901.446ZM636.594 918.999C630.141 912.542 621.066 908.507 611.185 908.507C601.304 908.507 592.431 912.542 585.776 918.999C579.323 925.455 575.29 934.534 575.29 944.42C575.29 954.306 579.323 963.385 585.776 969.841C592.229 976.297 601.304 980.332 611.185 980.332C621.066 980.332 629.939 976.297 636.594 969.841C643.047 963.385 647.08 954.306 647.08 944.42C647.08 934.534 643.047 925.455 636.594 918.999Z" fill="#EA501F"/>
<path d="M729.76 894.183C742.061 894.183 753.354 899.025 761.622 907.498C768.478 914.358 771.301 921.218 773.721 928.481C779.972 948.859 768.075 948.051 764.445 948.051H697.696C698.301 952.894 699.511 957.332 700.923 961.367C703.544 967.622 707.376 972.262 712.215 975.49C717.257 978.718 723.71 980.332 731.171 980.332C739.238 980.332 748.716 978.113 759.202 973.674C762.832 972.06 767.066 973.876 768.68 977.508C770.293 981.139 768.478 985.376 764.848 986.99C752.749 992.034 741.456 994.455 731.373 994.657C721.088 994.859 712.014 992.438 704.553 987.596C697.091 982.753 690.638 976.096 687.613 966.815C680.757 946.437 680.555 926.262 697.898 907.498C705.964 898.823 717.459 894.183 729.76 894.183ZM751.539 917.788C745.691 912.139 738.028 908.709 729.76 908.709C721.492 908.709 713.829 912.139 707.981 917.788C703.746 922.025 700.318 927.271 698.503 933.323H761.218C759 927.271 755.773 922.025 751.539 917.788Z" fill="#EA501F"/>
<path d="M839.865 894.183C852.166 894.183 863.458 899.025 871.726 907.498C878.583 914.358 881.406 921.218 883.826 928.481C890.077 948.859 878.179 948.051 874.55 948.051H807.801C808.406 952.894 809.616 957.332 811.028 961.367C813.649 967.622 817.481 972.262 822.32 975.49C827.362 978.718 833.815 980.332 841.276 980.332C849.342 980.332 858.82 978.113 869.307 973.674C872.936 972.06 877.171 973.876 878.784 977.508C880.398 981.139 878.583 985.376 874.953 986.99C862.854 992.034 851.561 994.455 841.478 994.657C831.193 994.859 822.119 992.438 814.657 987.596C807.196 982.753 800.743 976.096 797.718 966.815C790.862 946.437 790.66 926.262 808.003 907.498C816.069 898.823 827.563 894.183 839.865 894.183ZM861.644 917.788C855.795 912.139 848.133 908.709 839.865 908.709C831.597 908.709 823.934 912.139 818.086 917.788C813.851 922.025 810.423 927.271 808.608 933.323H871.323C869.105 927.271 865.878 922.025 861.644 917.788Z" fill="#EA501F"/>
<path d="M248.605 238.274H400.453C405.091 186.826 419.409 140.624 439.978 104.913C467.202 57.7023 505.92 28.6494 549.68 28.6494C593.439 28.6494 631.956 57.904 659.381 104.913C679.95 140.422 694.268 186.826 698.906 238.274H850.553C868.5 238.274 884.633 253.002 883.221 270.958L852.771 696.058C848.939 749.322 815.464 779.787 766.865 779.787H332.494C278.45 779.787 249.815 742.059 246.588 696.058L215.936 271.16C214.726 253.204 230.657 238.274 248.605 238.274ZM438.365 238.274H660.591C656.155 193.686 643.854 154.142 626.309 123.878C606.144 88.571 578.718 66.5795 549.68 66.5795C520.439 66.5795 493.215 88.571 472.646 124.08C455.102 154.142 443.003 193.888 438.365 238.274Z" fill="#EA501F"/>
<path d="M439.373 630.689C432.315 625.847 430.5 616.365 435.34 609.303C440.18 602.242 449.657 600.426 456.715 605.268C461.152 608.295 465.79 611.321 470.832 614.347C506.323 635.935 538.992 646.628 566.216 646.628C590.818 646.628 610.782 637.347 623.486 618.584C624.293 617.172 625.099 616.365 625.301 615.76C628.931 609.909 631.553 603.654 633.367 597.602C636.997 585.093 636.392 572.18 631.351 560.478C625.906 548.171 615.42 536.268 599.086 526.382C588.196 519.724 574.685 513.873 558.351 509.434C516.809 497.732 486.158 481.188 469.622 458.995C451.472 434.583 450.061 405.126 469.42 369.415C482.326 345.81 508.743 331.082 542.218 328.459C571.055 326.24 605.74 333.099 641.03 351.056C648.693 354.889 651.718 364.17 647.685 371.836C643.652 379.503 634.577 382.53 626.914 378.494C596.867 363.161 568.232 357.31 544.436 359.126C521.649 360.942 504.307 369.819 496.644 383.942C483.738 407.547 483.939 426.109 494.425 440.232C506.525 456.574 531.732 469.285 566.82 479.171C585.776 484.618 601.909 491.478 615.218 499.548C637.199 512.864 651.92 529.61 659.785 547.768C667.851 566.531 668.859 586.303 663.414 605.672C660.995 614.347 657.163 623.023 651.92 631.497C650.71 633.312 649.903 634.725 649.298 635.733C630.544 663.374 601.707 677.093 566.619 677.295C533.749 677.295 495.434 665.19 455.102 640.576C450.061 637.751 444.818 634.523 439.373 630.689Z" fill="white"/>
</svg>
