<svg width="1553" height="1080" viewBox="0 0 1553 1080" fill="none" xmlns="http://www.w3.org/2000/svg">
<path fill-rule="evenodd" clip-rule="evenodd" d="M777.123 173.992C806.826 159.155 842.852 151.058 875.816 148.204L912.866 144.972C953.453 141.483 994.058 143.625 1034.69 143.625H1056.97V165.905C1056.97 264.825 1056.97 363.774 1056.97 462.714V474.091C1056.97 576.225 973.457 659.74 871.294 659.74H497.028V143.625H519.298C559.97 143.625 600.433 140.952 641.095 144.109L678.136 146.906C713.328 149.551 745.543 158.093 777.123 173.992V173.992Z" fill="#4D4C4B"/>
<path fill-rule="evenodd" clip-rule="evenodd" d="M519.298 165.905V420.165V462.714V474.091V637.47H682.649H708.332H871.294C961.17 637.47 1034.69 563.929 1034.69 474.091V462.714C1034.69 364.353 1034.69 268.4 1034.69 165.905C995.642 165.905 954.401 164.947 914.801 167.185L877.741 170.38C841.478 174.788 804.788 183.255 776.991 199.296C746.984 181.956 714.257 173.338 676.458 169.1L639.408 166.284C599.002 164.407 557.581 165.905 519.298 165.905V165.905Z" fill="#5FB74E"/>
<path fill-rule="evenodd" clip-rule="evenodd" d="M565.507 637.469H682.649H708.332H871.294C911.113 637.469 947.689 623.03 976.093 599.168C942.92 522.052 866.241 468.089 776.981 468.089C673.557 468.089 587.075 540.54 565.507 637.469V637.469Z" fill="#89C45F"/>
<path fill-rule="evenodd" clip-rule="evenodd" d="M776.991 637.47L873.2 636.048C912.487 636.048 948.248 622.197 976.102 599.178C1011.97 569.542 1034.69 524.661 1034.69 474.091V462.714C1034.69 364.353 1034.69 268.4 1034.69 165.905C995.642 165.905 954.401 164.948 914.801 167.185L877.741 170.38C841.478 174.788 804.788 183.255 776.991 199.296V637.47V637.47Z" fill="#4A9E4B"/>
<path fill-rule="evenodd" clip-rule="evenodd" d="M776.991 637.47H871.891C911.71 637.47 947.698 623.041 976.102 599.178C943.29 522.935 864.98 469.303 776.991 468.127V637.47Z" fill="#5FB74E"/>
<path fill-rule="evenodd" clip-rule="evenodd" d="M914.801 151.75C907.719 82.1911 848.939 28 777.578 28C706.246 28 647.495 81.7266 639.408 150.878L676.458 153.703C683.009 103.76 725.577 65.145 777.436 65.145C829.267 65.145 872.214 104.423 877.741 154.936L914.801 151.75V151.75Z" fill="#4D4C4B"/>
<path fill-rule="evenodd" clip-rule="evenodd" d="M837.259 489.829C821.113 506.903 804.987 523.987 788.851 541.081L776.981 553.662L765.13 541.081C748.985 524.016 732.858 506.903 716.722 489.829L708.37 480.964L714.476 470.422C727.417 448.105 751.63 436.093 776.981 436.093C802.361 436.093 826.555 448.105 839.506 470.422L845.621 480.964L837.259 489.829V489.829Z" fill="#4D4C4B"/>
<path fill-rule="evenodd" clip-rule="evenodd" d="M825.37 478.632C809.272 495.716 793.108 512.781 776.981 529.884C760.855 512.781 744.719 495.716 728.583 478.632C738.774 461.064 757.906 452.38 776.981 452.418C796.066 452.38 815.197 461.064 825.37 478.632Z" fill="#FDF8B4"/>
<path fill-rule="evenodd" clip-rule="evenodd" d="M825.37 478.632C809.272 495.716 793.108 512.781 776.981 529.884V452.418C796.066 452.38 815.197 461.064 825.37 478.632Z" fill="#FCD066"/>
<path fill-rule="evenodd" clip-rule="evenodd" d="M656.056 230.174C728.346 230.174 786.974 288.84 786.974 361.101C786.974 433.39 728.346 492.028 656.056 492.028C583.757 492.028 525.148 433.39 525.148 361.101C525.148 288.84 583.757 230.174 656.056 230.174V230.174Z" fill="#4D4C4B"/>
<path fill-rule="evenodd" clip-rule="evenodd" d="M656.056 252.453C716.059 252.453 764.713 301.108 764.713 361.101C764.713 421.085 716.059 469.749 656.056 469.749C596.034 469.749 547.408 421.085 547.408 361.101C547.408 301.108 596.034 252.453 656.056 252.453V252.453Z" fill="#EEEFEE"/>
<path fill-rule="evenodd" clip-rule="evenodd" d="M656.056 252.453C705.573 252.453 747.364 285.597 760.456 330.905C747.364 376.194 705.573 409.348 656.056 409.348C606.52 409.348 564.767 376.194 551.674 330.905C564.767 285.597 606.52 252.453 656.056 252.453Z" fill="#FEFEFE"/>
<path fill-rule="evenodd" clip-rule="evenodd" d="M897.925 230.174C970.234 230.174 1028.83 288.84 1028.83 361.101C1028.83 433.39 970.234 492.028 897.925 492.028C825.626 492.028 766.998 433.419 766.998 361.101C766.998 288.84 825.626 230.174 897.925 230.174V230.174Z" fill="#4D4C4B"/>
<path fill-rule="evenodd" clip-rule="evenodd" d="M897.925 252.453C957.918 252.453 1006.58 301.108 1006.58 361.101C1006.58 421.085 957.918 469.749 897.925 469.749C837.922 469.749 789.277 421.085 789.277 361.101C789.277 301.108 837.922 252.453 897.925 252.453V252.453Z" fill="#EEEFEE"/>
<path fill-rule="evenodd" clip-rule="evenodd" d="M897.925 252.453C947.433 252.453 989.223 285.597 1002.3 330.905C989.233 376.194 947.433 409.348 897.925 409.348C848.389 409.348 806.617 376.194 793.525 330.905C806.617 285.597 848.389 252.453 897.925 252.453Z" fill="#FEFEFE"/>
<path fill-rule="evenodd" clip-rule="evenodd" d="M669.708 293.533C708.455 293.533 739.893 324.952 739.893 363.661C739.893 402.437 708.455 433.846 669.708 433.846C630.932 433.846 599.523 402.437 599.523 363.661C599.523 350.748 603.04 338.651 609.146 328.241C614.152 340.633 626.268 349.326 640.479 349.326C659.137 349.326 674.287 334.233 674.287 315.566C674.287 307.157 671.215 299.496 666.172 293.609C667.338 293.533 668.532 293.533 669.708 293.533V293.533Z" fill="#4D4C4B"/>
<path fill-rule="evenodd" clip-rule="evenodd" d="M884.245 293.533C923.03 293.533 954.449 324.952 954.449 363.661C954.449 402.437 923.03 433.846 884.245 433.846C845.507 433.846 814.088 402.437 814.088 363.661C814.088 350.748 817.587 338.651 823.673 328.241C828.707 340.633 840.852 349.326 855.044 349.326C873.702 349.326 888.824 334.233 888.824 315.566C888.824 307.157 885.79 299.496 880.727 293.609C881.912 293.533 883.069 293.533 884.245 293.533V293.533Z" fill="#4D4C4B"/>
<path fill-rule="evenodd" clip-rule="evenodd" d="M826.915 959.876C811.253 975.775 792.501 983.777 770.781 983.777C753.213 983.777 738.281 980.184 723.036 971.338V934.886C735.304 943.191 750.691 951.107 765.898 951.107C797.582 951.107 816.449 929.301 816.449 898.395C816.449 867.45 796.928 844.99 765.235 844.99C751.061 844.99 739.599 850.082 730.63 860.283C721.017 871.347 716.049 887.141 716.049 908.027V1051.99H713.66C696.197 1051.99 682.033 1037.83 682.033 1020.37V902.633C682.033 852.67 712.589 812.339 765.083 812.339C790.993 812.339 812.05 821.194 828.006 838.999C843.013 855.628 850.465 876.722 850.465 902.083C850.465 924.665 842.615 943.958 826.915 959.876V959.876ZM105.764 980.411C72.5152 980.411 56 957.791 56 926.192V806.319C56 788.856 70.1545 774.701 87.6273 774.701H90.0069V815.695H147.469V848.356H90.0069V929.975C90.0069 943.854 96.2072 947.76 109.461 947.76H147.469V980.411H105.764V980.411ZM303.283 959.592C286.464 975.709 266.28 983.777 242.815 983.777C219.578 983.777 199.489 975.7 182.699 959.592C165.842 943.428 157.433 922.855 157.433 898.053C157.433 849.683 194.379 812.339 242.815 812.339C266.071 812.339 286.199 820.474 303.112 836.685C320.073 852.954 328.548 873.47 328.548 898.053C328.548 922.855 320.13 943.428 303.283 959.592ZM462.272 855.324C457.286 863.696 453.417 869.697 450.697 873.319C447.691 877.253 444.733 880.41 441.804 882.581C465.439 890.222 474.237 906.595 474.237 930.989L474.246 980.411H471.848C454.385 980.411 440.22 966.257 440.22 948.794V934.336C440.22 918.55 433.148 907.828 416.405 907.828H385.517V980.411H383.138C365.674 980.411 351.51 966.257 351.51 948.794V773.393C351.51 755.93 365.674 741.766 383.138 741.766H385.517V874.826H395.576C406.612 874.826 413.883 871.062 418.045 863.914L446.61 815.695L485.367 815.667L462.272 855.324V855.324ZM637.834 959.592C621.035 975.709 600.831 983.777 577.367 983.777C554.139 983.777 534.06 975.7 517.25 959.592C500.394 943.428 491.994 922.855 491.994 898.053C491.994 849.683 528.93 812.339 577.367 812.339C600.632 812.339 620.76 820.474 637.664 836.685C654.624 852.954 663.1 873.47 663.1 898.053C663.1 922.855 654.691 943.428 637.834 959.592V959.592ZM613.289 859.723C603.913 849.911 591.995 844.99 577.367 844.99C546.071 844.99 527.347 867.81 527.347 898.053C527.347 927.879 546.527 951.107 577.367 951.107C608.245 951.107 627.396 927.879 627.396 898.053C627.396 882.221 622.656 869.517 613.289 859.723V859.723ZM278.728 859.723C269.352 849.911 257.444 844.99 242.815 844.99C211.52 844.99 192.796 867.81 192.796 898.053C192.796 927.879 211.975 951.107 242.815 951.107C273.675 951.107 292.854 927.879 292.854 898.053C292.854 882.221 288.104 869.517 278.728 859.723V859.723ZM1195.15 958.663C1179.54 975.415 1159.46 983.777 1135.08 983.777C1109.39 983.777 1088.44 974.903 1072.49 957.108C1057.5 940.271 1050.04 919.167 1050.04 894.024C1050.04 849.513 1084.41 812.339 1129.58 812.339C1147.03 812.339 1162.17 815.999 1177.47 824.399V861.221C1165.19 852.916 1149.8 844.99 1134.62 844.99C1102.93 844.99 1084.06 866.796 1084.06 897.712C1084.06 928.23 1104.02 951.107 1135.26 951.107C1149.41 951.107 1161.06 945.798 1170.38 935.132C1179.64 924.514 1184.46 908.918 1184.46 887.976V773.393C1184.46 755.93 1198.61 741.766 1216.08 741.766H1218.46V893.342C1218.46 920.048 1210.75 941.892 1195.15 958.663V958.663ZM1291.19 796.146C1287.62 800.147 1282.5 801.986 1276.25 801.986C1264.58 801.986 1256.24 793.369 1256.24 781.793C1256.24 769.933 1264.44 761.931 1276.25 761.931C1287.63 761.931 1296.28 770.369 1296.28 781.793C1296.28 787.443 1294.63 792.288 1291.19 796.146V796.146ZM1463.98 887.976C1463.98 874.57 1458.91 863.961 1448.71 855.912C1439.53 848.678 1428.05 844.99 1414.12 844.99C1383.34 844.99 1363.58 869.052 1363.58 898.717C1363.58 927.282 1384.52 951.107 1413.81 951.107C1434.16 951.107 1445.05 939.209 1456.66 924.4V967.129C1450.74 971.557 1443.94 976.382 1436.98 979.217C1429.65 982.289 1420.92 983.777 1410.81 983.777C1361.86 983.777 1329.58 943.228 1329.58 896.375C1329.58 872.314 1337.05 852.433 1352.08 836.913C1368.06 820.483 1388.98 812.339 1414.62 812.339C1463.23 812.339 1498 840.241 1498 890.659V980.411H1495.61C1478.15 980.411 1463.98 966.257 1463.98 948.794V887.976V887.976ZM998.429 878.343C994.125 865.051 988.74 858.51 976.339 851.598C946.883 835.121 917.872 849.133 904.381 878.21L998.429 878.343V878.343ZM972.481 983.275C950.751 987.882 929.439 984.327 908.648 972.723C888.369 961.384 874.764 944.527 867.966 922.276C854.201 877.253 882.405 827.072 927.751 814.918C950.239 808.898 971.798 811.628 992.276 823.081C1026.3 842.089 1038.69 871.498 1036.53 909.402L899.518 909.117C901.528 924.58 911.122 936.677 924.585 944.205C938.237 951.837 950.798 953.657 962.46 950.045C975.382 945.978 985.877 935.426 994.409 925.595L1022.34 945.94C1010.94 966.323 995.433 978.383 972.481 983.275V983.275ZM1259.25 815.695H1293.26V980.411H1290.87C1273.41 980.411 1259.25 966.257 1259.25 948.794V815.695Z" fill="#3CAF41"/>
</svg>
