<svg width="627" height="585" viewBox="0 0 627 585" fill="none" xmlns="http://www.w3.org/2000/svg">
<path d="M567.823 333.67C581.965 394.704 583.539 437.87 572.414 468.127C561.78 497.048 538.612 516.427 496.265 527.774C413.35 549.991 326.83 497.719 304.52 414.455C294.958 378.771 291.607 310.944 291.173 242.546C290.742 174.734 293.161 108.202 294.555 76.1775C294.743 71.8469 298.301 68.3495 302.906 68.3495L327.314 68.3494C331.06 68.3494 335.745 71.3027 338.093 77.3708C347.655 102.078 366.322 123.55 387.9 143.27C404.88 158.788 424.527 173.96 444.117 189.088C449.401 193.168 454.681 197.245 459.903 201.325C510.289 240.689 555.548 280.697 567.823 333.67Z" fill="white" stroke="black" stroke-width="25"/>
<path d="M59.1129 334.52C44.9708 395.553 43.3965 438.719 54.5217 468.977C65.1553 497.897 88.324 517.277 130.671 528.624C213.586 550.841 300.105 498.568 322.416 415.304C331.977 379.62 335.329 311.793 335.763 243.395C336.193 175.583 333.774 109.052 332.381 77.027C332.192 72.6964 328.635 69.1989 324.029 69.1989L299.622 69.1989C295.876 69.1989 291.191 72.1522 288.843 78.2203C279.281 102.927 260.614 124.4 239.036 144.12C222.055 159.638 202.409 174.809 182.818 189.937C177.535 194.017 172.255 198.094 167.033 202.174C116.646 241.539 71.3872 281.547 59.1129 334.52Z" fill="white" stroke="black" stroke-width="25"/>
<path d="M469.5 390C469.5 475.845 399.691 545.5 313.5 545.5C227.309 545.5 157.5 475.845 157.5 390C157.5 366.387 157.93 337.963 179.383 316.295C247.232 247.765 275.82 141.609 286.354 89.8953C288.894 77.4292 299.584 68.5 311.423 68.5H315.852C326.501 68.5 335.984 75.6237 339.083 86.0681C346.857 112.274 360.15 154.525 376.848 197.527C393.444 240.267 413.798 284.798 435.928 314.904C458.617 345.768 469.5 367.789 469.5 390Z" fill="white" stroke="black" stroke-width="25"/>
</svg>
